<!DOCTYPE svg PUBLIC "-//W3C//DTD SVG 1.1//EN" "http://www.w3.org/Graphics/SVG/1.1/DTD/svg11.dtd">
<svg xmlns="http://www.w3.org/2000/svg" viewBox="0 0 740 528">
<path fill="#fbfbfb" stroke="#fbfbfb" d="M575 7.245c-.275.265-8.15.769-17.5 1.119-36.078 1.35-72.921 6.715-135.355 19.712-8.034 1.672-8.58 1.414 25.355 12.004 17.199 5.367 34.605 11.551 42.025 14.931 5.046 2.299 7.176 2.26 30.475-.554 62.669-7.571 115.302-3.928 142.647 9.873 15.394 7.77 20.894 17.477 20.776 36.67-.076 12.403-.609 16.019-4.347 29.5-5.738 20.694-29.298 66.174-45.379 87.598-.992 1.321-4.142 5.693-7 9.716-6.993 9.842-11.892 16.344-20.01 26.561l-6.814 8.574-1.956 13.276c-1.863 12.64-2.608 16.789-6.338 35.275-1.828 9.058-5.7 24.566-7.978 31.953-.84 2.725-1.309 5.172-1.043 5.439.692.691 22.946-22.52 32.942-34.359 2.75-3.257 7.083-8.197 9.63-10.977 5.434-5.934 7.862-8.981 23.361-29.319 11.317-14.851 13.483-17.893 26.154-36.737 7.792-11.588 20.595-32.899 23.516-39.141 1.25-2.673 4.135-8.234 6.41-12.359 2.276-4.125 5.579-10.875 7.342-15a1355.1 1355.1 0 0 1 4.089-9.5c15.363-34.759 21.062-75.008 13.591-96-3.936-11.062-5.243-13.346-11.999-20.962C696.752 21.037 658.969 9.463 596.5 7.443c-11.55-.374-21.225-.463-21.5-.198M352 31.96c-5.775 2.049-14.1 4.995-18.5 6.546a9225.774 9225.774 0 0 0-31 10.979 3000.523 3000.523 0 0 1-25.5 8.914l-28 9.611c-8.525 2.926-17.75 6.118-20.5 7.095-2.75.977-10.85 3.858-18 6.402s-14.35 4.997-16 5.451c-5.106 1.403-39.976 13.691-42.141 14.85-2.268 1.214-4.674 11.522-6.346 27.192-.499 4.675-1.417 13-2.04 18.5-1.427 12.596-1.424 67.381.004 82a3892.5 3892.5 0 0 1 2.072 22c3.863 42.646 13.495 87.667 23.728 110.913 14.798 33.616 29.337 51.517 63.511 78.196 4.517 3.525 9.112 7.234 10.212 8.242 5.301 4.854 60.035 40.149 62.263 40.149.297 0 4.185 2.107 8.639 4.682 7.969 4.606 40.203 20.795 46.131 23.167 2.967 1.187 14.847-3.559 34.467-13.77 24.25-12.622 29.719-15.553 31-16.613.825-.683 4.425-2.702 8-4.487 3.575-1.785 8.3-4.459 10.5-5.944 2.2-1.484 4.675-2.998 5.5-3.364.825-.366 4.875-2.91 9-5.654 4.125-2.744 9.075-5.854 11-6.912 1.925-1.058 6.255-4.102 9.621-6.764 3.367-2.663 9.217-7.075 13-9.806 44.699-32.259 61.83-57.95 80.708-121.035 3.284-10.974 8.418-40.679 11.672-67.53 1.58-13.037 4.297-61.594 3.509-62.719-.096-.136-12.016 11.475-26.489 25.804l-26.315 26.052-.889 10.196c-.488 5.609-1.328 12.447-1.866 15.197-.537 2.75-1.615 8.6-2.395 13-2.54 14.331-8.002 35.586-13.235 51.5-2.577 7.837-10.466 24.259-14.892 31-5.733 8.73-26.014 28.296-37.316 36-2.017 1.375-5.68 4.096-8.14 6.046-2.46 1.951-6.498 4.869-8.973 6.485-2.475 1.617-6.75 4.562-9.5 6.546s-6.462 4.183-8.25 4.886c-1.788.704-3.25 1.603-3.25 1.998s-1.012 1.23-2.25 1.856c-1.238.626-4.05 2.251-6.25 3.612-2.2 1.36-9.4 5.498-16 9.196-6.6 3.698-14.316 8.184-17.146 9.97-2.831 1.786-8.912 5.07-13.514 7.298l-8.368 4.05-9.986-5.082c-5.492-2.795-10.436-5.434-10.986-5.864-.55-.431-7.075-4.264-14.5-8.52-7.425-4.255-16.678-9.816-20.562-12.357-3.884-2.541-8.955-5.745-11.268-7.12-4.813-2.861-21.586-14.782-28.208-20.049-14.713-11.701-19.336-15.639-27.151-23.126-4.778-4.579-9.918-10.125-11.421-12.325-7.066-10.344-8.223-12.328-9.919-17-.999-2.75-2.123-5.45-2.498-6-1.973-2.891-9.36-27.116-12.502-41-8.293-36.649-14.38-113.584-11.591-146.5 1.703-20.095.933-18.723 12.665-22.54 10.257-3.338 48.307-16.415 86.955-29.886 12.1-4.218 25.15-8.741 29-10.051 3.85-1.311 10.825-3.79 15.5-5.51 4.675-1.72 12.881-4.494 18.236-6.165l9.736-3.038 7.264 2.516A4486.859 4486.859 0 0 1 394 90.981c7.975 2.826 25.3 8.883 38.5 13.46 13.2 4.577 28.05 9.887 33 11.8 9.819 3.796 27.781 9.759 29.396 9.759.556 0 4.557-3.487 8.891-7.75s12.68-12.213 18.546-17.668c14.103-13.113 14.109-13.047-1.583-17.94-6.737-2.1-16.525-5.534-21.75-7.63-5.225-2.096-13.1-4.954-17.5-6.35-7.373-2.34-31.749-10.746-51-17.589-4.4-1.564-10.025-3.507-12.5-4.319-17.015-5.579-38.664-13.105-39.5-13.73-1.11-.832-14.499-5.092-15.418-4.907-.32.065-5.307 1.794-11.082 3.843m185 75.228c-54.768 54.013-148.747 146.936-160.589 158.785l-12.466 12.473-49.482-49.973L264.98 178.5l-28.536 28.861-28.536 28.862 5.76 6.138C225.552 255.027 363.902 393 364.719 393c.85 0 142.068-141.441 200.781-201.097 38.301-38.917 51.647-52.975 51.282-54.019-.155-.444-7.257-7.952-15.782-16.685-8.525-8.732-20.377-21.124-26.338-27.538-5.962-6.414-11.137-11.652-11.5-11.641-.364.011-12.137 11.337-26.162 25.168m-415.685 99.426c-5.097 6.216-11.07 13.225-21.352 25.06C37.859 303.154 3.888 369.866 8.902 410.5c4.387 35.557 26.599 56.338 72.598 67.922 18.188 4.58 64.534 7.062 86.5 4.632 4.675-.517 14.35-1.458 21.5-2.09 7.15-.633 15.925-1.74 19.5-2.46 3.575-.72 9.425-1.614 13-1.987 6.985-.728 25.832-4.295 27.218-5.152.462-.286-3.042-2.957-7.788-5.937-9.615-6.037-12.238-7.995-27.682-20.668l-10.753-8.824-8.247 1.517c-27.579 5.07-66.081 4.659-91.025-.972-39.483-8.912-51.334-29.837-39.072-68.981 1.924-6.141 14.132-31.349 18.162-37.5 1.621-2.475 5.53-8.55 8.686-13.5 6.666-10.454 25.001-35.503 34.287-46.841l6.422-7.84-.691-5.66c-.38-3.112-1.351-8.359-2.158-11.659-.836-3.417-1.721-13.655-2.057-23.78-.325-9.779-.946-18-1.381-18.269-.435-.268-2.507 1.605-4.606 4.163" fill-rule="evenodd"/>
<path fill="#d3e3ea" stroke="#d3e3ea" d="M557 8.585c-2.475.195-11.25.852-19.5 1.46-17.556 1.295-50.896 5.935-71.5 9.951a16683.36 16683.36 0 0 1-31.25 6.053c-9.212 1.773-16.75 3.613-16.75 4.088 0 .475.545.863 1.212.863 3.371 0 66.138 21.152 72.112 24.301 1.584.835 4.44 1.32 6.5 1.104 2.022-.212 9.301-1.048 16.176-1.858 12.64-1.49 16.15-1.808 39.395-3.57 52.645-3.99 101.694 3.906 119.026 19.162 21.274 18.727 13.147 64.961-21.3 121.165-3.641 5.942-7.746 12.737-9.121 15.1-1.375 2.363-3.85 6.044-5.5 8.18s-4.24 5.823-5.756 8.193c-4.449 6.96-14.125 19.824-23.31 30.995-6.464 7.861-7.174 9.484-8.414 19.228-2.128 16.733-9.506 52.106-14.162 67.902-1.038 3.521-1.731 6.559-1.539 6.75.463.464 20.03-19.691 27.482-28.309 19.178-22.177 26.596-31.008 31.722-37.768a2387.42 2387.42 0 0 1 8.426-11c2.996-3.891 7.496-10.049 10-13.684 2.503-3.636 7.47-10.836 11.037-16 3.568-5.165 6.982-10.291 7.588-11.391.605-1.1 4.472-7.625 8.593-14.5 4.12-6.875 9.646-16.775 12.279-22 2.633-5.225 5.146-9.95 5.584-10.5 1.581-1.986 14.261-32.092 17.577-41.733 3.512-10.212 7.338-29.245 8.469-42.133 4.47-50.939-25.711-78.216-97.576-88.19-11.312-1.569-64.866-2.854-77.5-1.859M353 32.037c-13.659 4.747-25.163 8.8-49.5 17.44-7.15 2.539-21.325 7.467-31.5 10.952a7651.61 7651.61 0 0 0-33.5 11.569c-8.25 2.877-25.8 8.939-39 13.471-38.903 13.354-44.739 15.458-47.002 16.94-2.45 1.605-4.763 11.587-6.551 28.272A6297.553 6297.553 0 0 1 143.952 149c-3.047 27.474-.191 88.02 6.466 137.061 6.252 46.065 22.405 90.841 41.284 114.439 21.535 26.919 71.624 65.374 116.298 89.286a769.087 769.087 0 0 1 13.764 7.568c8.979 5.094 39.457 19.771 41.236 19.858 2.424.118 34.732-15.598 55-26.755 21.566-11.872 27.056-15.07 38.569-22.465 6.638-4.265 13.388-8.437 15-9.272 1.612-.835 4.075-2.576 5.473-3.869 2.785-2.576 5.378-4.502 11.458-8.509 7.119-4.692 31.812-25.851 38.698-33.16 21.04-22.332 31.62-43.363 46.121-91.682 2.738-9.121 8.612-42.334 11.143-63 2.546-20.784 4.998-66.775 3.538-66.357-.275.079-9.5 9.385-20.5 20.68-11 11.294-22.025 22.304-24.5 24.466-6.491 5.669-7.609 8.253-8.413 19.424-.387 5.383-1.128 11.812-1.646 14.287-.519 2.475-1.616 8.1-2.438 12.5-6.44 34.464-17.566 67.072-28.2 82.646-9.159 13.415-48.303 45.951-70.645 58.721-2.534 1.448-9.455 5.597-15.382 9.221-5.927 3.623-15.89 9.473-22.14 13-32.509 18.343-28.968 17.438-41.636 10.639-14.479-7.77-37.132-20.858-44.806-25.885-34.4-22.536-46.47-31.487-63.374-47-17.097-15.69-24.933-28.287-32.247-51.842-.598-1.925-1.943-6.2-2.99-9.5-6.147-19.386-12.634-60.257-14.603-92-.341-5.5-1.027-14.275-1.524-19.5-1.206-12.672-1.165-46.164.071-58 1.776-17.005-.346-14.673 19.306-21.21 9.442-3.141 26.167-8.832 37.167-12.646s33.05-11.445 49-16.957c15.95-5.512 32.825-11.433 37.5-13.158C347.819 85.669 362.879 81 365.121 81c1.775 0 20.057 6.261 44.379 15.199 6.05 2.224 17.525 6.196 25.5 8.827 7.975 2.631 19.45 6.686 25.5 9.01 23.311 8.956 33.793 12.009 35.998 10.484 5.526-3.825 36.775-35.365 36.286-36.625-.298-.767-6.109-3.122-12.913-5.233-6.804-2.112-16.646-5.554-21.871-7.65-5.225-2.096-13.1-4.955-17.5-6.353-4.4-1.398-19.025-6.434-32.5-11.191-13.475-4.757-26.525-9.249-29-9.983-2.475-.734-8.325-2.757-13-4.496-4.675-1.738-10.525-3.755-13-4.482-5.586-1.64-12.851-4.241-15.5-5.549-1.853-.915-4.127-1.676-11.25-3.764-2.072-.607-5.34.094-13.25 2.843m198.489 61.104c-17.613 18.255-186.567 184.822-187.496 184.846-.279.007-22.554-22.047-49.5-49.009-26.946-26.963-49.506-48.9-50.133-48.75-.628.149-13.384 12.758-28.348 28.018l-27.206 27.747 7.503 8.253c4.127 4.54 8.559 9.21 9.847 10.379 1.289 1.169 25.826 25.694 54.527 54.5 72.917 73.186 83.053 83.13 84.31 82.711.607-.203 27.97-27.22 60.805-60.039C553.553 204.108 615.833 140.799 615.953 138.5c.048-.908-7.082-8.517-41.964-44.782L562.478 81.75l-10.989 11.391M121.396 206.75c-3.609 4.762-11.369 13.996-23.203 27.61-33.347 38.363-64.895 86.334-77.673 118.107-11.168 27.772-13.592 43.222-10.129 64.557 9.734 59.958 95.728 81.207 228.109 56.365 11.444-2.147 11.49-2.175 7.476-4.601-7.848-4.742-14.854-9.589-21.374-14.788a2553.488 2553.488 0 0 0-10-7.941c-1.706-1.343-5.044-4.192-7.418-6.332-2.958-2.666-4.846-3.677-6-3.212-14.938 6.013-67.651 6.524-94.953.92-60.993-12.519-62.363-56.454-4.263-136.723 15.402-21.279 18.303-25.131 24.249-32.204 4.331-5.152 5.738-7.549 5.347-9.109-.292-1.164-.988-5.337-1.546-9.275-.559-3.937-1.457-9.063-1.996-11.391-.539-2.328-1.285-11.321-1.658-19.983-.372-8.662-1.003-15.75-1.402-15.75-.398 0-2.003 1.688-3.566 3.75" fill-rule="evenodd"/>
<path fill="#0570a2" stroke="#0570a2" d="M575 8.244c-.275.267-8.375.777-18 1.133-9.625.357-21.55 1.106-26.5 1.666-36.335 4.112-43.642 5.269-85 13.453-9.35 1.85-18.913 3.66-21.25 4.022-2.337.362-4.243.956-4.234 1.32.009.364 9.121 3.503 20.25 6.975 22.515 7.025 40.521 13.296 48.535 16.905 5.85 2.635 4.825 2.664 39.699-1.144 67.546-7.377 119.169-1.42 143.188 16.522 22.533 16.832 14.884 65.615-18.852 120.233-2.66 4.306-4.836 8.058-4.836 8.337 0 .279-1.277 2.381-2.837 4.671A783.782 783.782 0 0 0 638.72 212c-6.166 9.407-13.87 20.409-15.755 22.5-.992 1.1-3.302 4.108-5.134 6.684-1.832 2.575-6.401 8.548-10.153 13.272l-6.822 8.589-1.859 12.728c-3.053 20.905-7.288 41.738-11.94 58.727-1.656 6.05-3.022 11.379-3.034 11.842-.026.951 23.039-22.827 26.267-27.081 1.153-1.518 5.901-6.948 10.551-12.066s9.625-10.833 11.057-12.7c22.356-29.17 27.989-36.65 31.519-41.852 2.293-3.379 6.628-9.743 9.635-14.143 3.006-4.4 7.675-11.825 10.376-16.5 2.701-4.675 5.469-9.175 6.151-10 .682-.825 4.036-6.9 7.452-13.5 3.417-6.6 7.226-13.8 8.464-16 1.239-2.2 3.686-7.375 5.437-11.5 1.752-4.125 3.583-8.4 4.07-9.5 4.718-10.675 10.474-27.162 12.044-34.5 11.853-55.402 1.593-83.296-37.308-101.423-15.728-7.328-41.465-13.461-67.038-15.975-7.794-.766-47.156-1.886-47.7-1.358M351 33.133c-6.325 2.211-14.68 5.079-18.567 6.374-3.887 1.294-16.937 5.933-29 10.308-12.063 4.375-24.408 8.714-27.433 9.641-3.025.928-6.4 2.081-7.5 2.564-1.1.482-11.675 4.119-23.5 8.081-11.825 3.962-21.95 7.537-22.5 7.944-.55.407-3.925 1.644-7.5 2.748-5.733 1.772-36.788 12.322-53.5 18.176-11.921 4.175-11.741 3.766-15.728 35.756-2.71 21.752-3.236 78.844-.923 100.275 5.807 53.808 7.633 65.965 13.292 88.497 3.056 12.166 9.764 33.524 12.25 39.003 11.462 25.261 18.181 35.61 32.784 50.5 32.056 32.686 81.749 66.271 140.786 95.151 21.981 10.753 16.381 11.328 49.241-5.054 22.696-11.315 27.873-14.123 49.08-26.618 40.138-23.65 73.36-49.499 91.958-71.552 21.065-24.976 37.727-67.976 45.696-117.927 4.709-29.518 8.064-65.678 8.064-86.919v-6.698l-25.668 25.37-25.667 25.369-1.751 14.189c-5.405 43.796-18.461 87.413-32.234 107.689-8.035 11.828-34.216 34.884-55.781 49.122a4230.398 4230.398 0 0 0-9.5 6.302c-11.98 7.97-30.249 18.92-41.899 25.114-4.95 2.632-9.677 5.357-10.505 6.057-2.555 2.158-19.392 10.392-21.265 10.399-1.948.007-15.038-6.567-26.73-13.425a2241.608 2241.608 0 0 0-14.5-8.419c-3.85-2.211-10.825-6.487-15.5-9.502a5162.75 5162.75 0 0 0-15.757-10.116c-28.502-18.202-61.389-47.856-69.146-62.35-5.394-10.079-13.824-35.548-18.164-54.875-8.951-39.866-14.788-122.555-10.895-154.333 1.496-12.205.95-11.487 11.259-14.805 9.193-2.959 37.867-12.752 57.703-19.707 5.775-2.025 21.975-7.636 36-12.469 14.025-4.833 31.8-11.03 39.5-13.77C358.134 81.879 361.032 81 364.6 81c2.975 0 9.497 2.155 43.9 14.504 6.6 2.369 18.3 6.423 26 9.008 7.7 2.586 19.625 6.84 26.5 9.455C475.429 119.453 492.208 125 494.378 125c1.339 0 7.452-5.578 31.298-28.557 4.028-3.882 7.324-7.541 7.324-8.132 0-.59-7.312-3.551-16.25-6.578-8.937-3.028-25.475-8.738-36.75-12.688-32.711-11.462-40.794-14.271-71.5-24.848-15.95-5.495-32.204-11.162-36.121-12.594-8.789-3.213-7.559-3.301-21.379 1.53m180.475 80.618c-23.482 23.123-162.064 160.127-166.798 164.898-.452.456-23.094-21.666-50.315-49.16L264.87 179.5l-27.933 28.418-27.932 28.417 6.248 6.562c7.04 7.394 131.413 131.792 142.537 142.566l7.189 6.963 83.761-84.045c106.462-106.823 157.363-158.49 165.625-168.12 1.582-1.843 1.658-2.391.5-3.605-.751-.788-7.891-8.12-15.867-16.294-7.977-8.174-18.515-19.248-23.42-24.608-4.904-5.36-9.864-10.367-11.022-11.125-1.991-1.305-3.792.282-33.081 29.122m-412.478 96.848c-2.853 3.63-8.082 9.754-11.621 13.611-17.923 19.53-54.655 68.436-64.81 86.29-1.564 2.75-5.48 9.666-8.702 15.368C-4.329 393.46 2.307 443.719 52.557 467.465c26.661 12.598 75.507 18.752 115.773 14.586 5.043-.522 14.57-1.441 21.17-2.042 6.6-.602 15.375-1.724 19.5-2.495 4.125-.77 11.55-1.902 16.5-2.515 4.95-.613 12.07-1.807 15.822-2.653l6.822-1.539-9.318-6.026c-5.125-3.314-15.294-10.933-22.597-16.931l-13.279-10.905-8.225 1.512c-37.612 6.914-87.526 3.594-110.225-7.331-24.788-11.932-31.087-31.165-20.837-63.626 1.909-6.043 14.071-31.233 18.107-37.5 12.496-19.406 18.009-27.464 28.051-41 6.324-8.525 13.728-18.095 16.452-21.266l4.953-5.767-.7-5.733c-.385-3.154-1.351-8.434-2.146-11.734-.796-3.3-1.725-13.762-2.065-23.25-.34-9.488-.958-17.25-1.375-17.25-.417 0-3.091 2.97-5.943 6.599" fill-rule="evenodd"/>
<path fill="#040404" stroke="#040404" d="M360.5 30.065c-4.598 2.021-104.194 36.842-126 44.053-4.95 1.637-9.9 3.413-11 3.946-1.1.534-12.575 4.518-25.5 8.855-30.952 10.386-44.243 15.116-45.661 16.25-1.278 1.022-4.575 18.742-6.373 34.249-2.952 25.457-3.135 67.556-.423 97.082.808 8.8 1.713 18.7 2.009 22 2.303 25.61 9.017 62.794 14.446 80 6.192 19.625 8.078 24.455 15.616 40 10.456 21.561 28.573 41.897 56.386 63.291 4.675 3.597 9.983 7.819 11.797 9.384 6.768 5.843 48.766 32.778 61.203 39.253 4.125 2.148 9.075 4.886 11 6.086 1.925 1.199 12.854 6.763 24.287 12.365l20.788 10.184 16.021-7.486c14.656-6.847 31.627-15.674 53.904-28.034 8.528-4.732 10.395-5.87 21.5-13.102 8.41-5.477 8.715-5.663 13.614-8.314 2.412-1.306 7.311-4.733 10.886-7.615 3.575-2.883 7.527-5.776 8.782-6.429 4.588-2.388 31.951-26.019 40.153-34.678 34.151-36.052 56.016-108.748 58.854-195.675l.711-21.77-22 21.998c-12.1 12.099-23.205 22.915-24.678 24.036-3.299 2.511-4.473 6.192-5.259 16.506-.98 12.841-6.37 40.521-11.197 57.5-12.198 42.901-21.952 58.365-52.506 83.235-7.396 6.02-34.055 24.935-39.86 28.281-3.025 1.743-9.651 5.717-14.724 8.83-9.349 5.736-11.051 6.726-21.776 12.675-3.3 1.83-9.15 5.172-13 7.426-3.85 2.255-9.734 5.372-13.075 6.927l-6.076 2.827-7.424-3.717c-4.084-2.045-9.9-5.181-12.925-6.97a3346.3 3346.3 0 0 0-15-8.785c-15.023-8.747-15.137-8.817-28.14-17.159-31.838-20.428-60.484-43.949-71.938-59.07-15.985-21.104-28.847-69.788-33.419-126.5-3.959-49.107-4.345-79.774-1.226-97.415l1.223-6.915 6-1.753c5.416-1.581 38.574-12.894 70-23.882 23.653-8.27 67.246-23.345 80.427-27.812l13.426-4.551 10.574 3.583c23.4 7.93 31.711 10.853 34.573 12.159 1.65.752 10.875 3.963 20.5 7.135 9.625 3.172 22.474 7.669 28.554 9.995 15.063 5.762 35.485 12.612 36.523 12.251C496.74 124.218 532 89.566 532 88.51c0-.591-5.288-2.784-11.75-4.874-6.462-2.089-15.575-5.304-20.25-7.144-4.675-1.84-17.95-6.571-29.5-10.513-22.944-7.831-56.118-19.344-58.5-20.303-.825-.332-6.225-2.157-12-4.056-5.775-1.9-15.45-5.225-21.5-7.391-13.462-4.818-15.46-5.28-18-4.164" fill-rule="evenodd"/>
</svg>